<svg width="12" height="12" viewBox="0 0 12 12" fill="none" xmlns="http://www.w3.org/2000/svg">
<path d="M11.4707 1.97741C11.389 1.89669 11.2909 1.83257 11.1822 1.78895C11.0735 1.74534 10.9565 1.72314 10.8384 1.72372H9.93274V1.0824C9.93482 0.94175 9.90643 0.802188 9.84934 0.672324C9.79225 0.542461 9.70767 0.425049 9.60081 0.327334C9.49754 0.226285 9.37352 0.146333 9.23637 0.0924067C9.09922 0.0384804 8.95186 0.0117225 8.80338 0.0137824H8.3521C8.20356 0.0118192 8.05617 0.0386947 7.91902 0.0927509C7.78187 0.146807 7.65787 0.226898 7.55467 0.328082C7.44777 0.425771 7.36317 0.543177 7.30607 0.673047C7.24898 0.802917 7.22062 0.942492 7.22274 1.08315V1.72447H4.51274V1.0824C4.51481 0.94175 4.48643 0.802188 4.42934 0.672324C4.37225 0.542461 4.28766 0.425049 4.1808 0.327334C4.07763 0.226377 3.95373 0.146479 3.81672 0.092556C3.67972 0.0386328 3.53251 0.0118251 3.38416 0.0137824H2.93289C2.78434 0.0118192 2.63695 0.0386947 2.4998 0.0927509C2.36265 0.146807 2.23865 0.226898 2.13545 0.328082C2.02859 0.425798 1.94401 0.543209 1.88692 0.673073C1.82983 0.802936 1.80145 0.942498 1.80352 1.08315V1.72447H0.900184C0.782128 1.72389 0.665186 1.74608 0.556485 1.7897C0.447783 1.83331 0.349602 1.89744 0.267929 1.97816C0.182682 2.05549 0.114961 2.14845 0.0688993 2.25138C0.0228373 2.35431 -0.000601975 2.46504 1.05193e-05 2.57682V11.131C0.00305796 11.3565 0.0987552 11.572 0.266805 11.7319C0.434854 11.8917 0.662039 11.9832 0.900184 11.9871H10.8353C11.0739 11.984 11.3017 11.8929 11.4704 11.7332C11.6391 11.5734 11.7354 11.3576 11.7386 11.1318V2.57907C11.7397 2.46678 11.7164 2.35548 11.6704 2.25201C11.6243 2.14854 11.5563 2.05509 11.4707 1.97741ZM2.93526 11.131H0.900184V9.20705H2.9321L2.93526 11.131ZM2.93526 8.779H0.900184V6.64102H2.9321L2.93526 8.779ZM2.93526 6.21297H0.900184V4.28901H2.9321L2.93526 6.21297ZM2.77719 3.15603C2.75581 3.13674 2.73882 3.11351 2.72726 3.08777C2.71571 3.06203 2.70984 3.03433 2.71002 3.00636V1.0824C2.71083 1.02588 2.73491 0.971891 2.77712 0.93192C2.81934 0.89195 2.87635 0.869152 2.93605 0.868378H3.38416C3.44385 0.869152 3.50087 0.89195 3.54308 0.93192C3.5853 0.971891 3.60937 1.02588 3.61019 1.0824V3.00711C3.60937 3.06363 3.5853 3.11762 3.54308 3.15759C3.50087 3.19756 3.44385 3.22036 3.38416 3.22114H2.93289C2.90304 3.22136 2.87345 3.21577 2.84599 3.2047C2.81852 3.19362 2.79376 3.17731 2.77324 3.15678L2.77719 3.15603ZM5.64526 11.1303H3.38416V9.20705H5.6421L5.64526 11.1303ZM5.64526 8.77825H3.38416V6.64102H5.6421L5.64526 8.77825ZM5.64526 6.21222H3.38416V4.28901H5.6421L5.64526 6.21222ZM8.35527 11.1295H6.09337V9.20705H8.35131L8.35527 11.1295ZM8.35527 8.7775H6.09337V6.64102H8.35131L8.35527 8.7775ZM8.35527 6.21147H6.09337V4.28901H8.35131L8.35527 6.21147ZM8.1972 3.15453C8.17543 3.1358 8.15789 3.11307 8.14566 3.08773C8.13344 3.06239 8.12677 3.03496 8.12607 3.00711V1.0824C8.12669 1.02582 8.1507 0.971721 8.19296 0.93171C8.23521 0.891699 8.29235 0.868962 8.3521 0.868378H8.80338C8.86313 0.868962 8.92027 0.891699 8.96252 0.93171C9.00478 0.971721 9.02879 1.02582 9.02941 1.0824V3.00711C9.02879 3.06369 9.00478 3.11779 8.96252 3.1578C8.92027 3.19781 8.86313 3.22055 8.80338 3.22114H8.3521C8.32225 3.22141 8.29265 3.21583 8.26518 3.20476C8.2377 3.19368 8.21295 3.17735 8.19246 3.15678L8.1972 3.15453ZM10.84 11.1288H8.80338V9.20705H10.8353L10.84 11.1288ZM10.84 8.77676H8.80338V6.64102H10.8353L10.84 8.77676ZM10.84 6.21072H8.80338V4.28901H10.8353L10.84 6.21072Z" fill="#333333"/>
</svg>
