<svg width="24" height="24" viewBox="0 0 24 24" fill="none" xmlns="http://www.w3.org/2000/svg">
<g filter="url(#filter0_dd_339_12529)">
<rect x="3" y="2" width="17.5" height="17.5" rx="8.75" fill="url(#paint0_linear_339_12529)"/>
<path d="M10.9675 12.7095C10.9368 12.6206 10.9094 12.5061 10.8855 12.366C10.8616 12.2224 10.8496 12.0806 10.8496 11.9404C10.8496 11.7217 10.8923 11.5251 10.9778 11.3508C11.0667 11.1731 11.176 11.0073 11.3059 10.8535C11.4358 10.6997 11.5776 10.5527 11.7314 10.4126C11.8853 10.269 12.0271 10.1255 12.157 9.98193C12.2869 9.83496 12.3945 9.68286 12.48 9.52563C12.5688 9.36499 12.6133 9.18896 12.6133 8.99756C12.6133 8.8335 12.5808 8.68823 12.5159 8.56177C12.4543 8.4353 12.3689 8.32935 12.2595 8.2439C12.1501 8.15845 12.0237 8.09521 11.8801 8.0542C11.7366 8.00977 11.5845 7.98755 11.4238 7.98755C10.8462 7.98755 10.3455 8.21484 9.92163 8.66943V7.76709C10.4446 7.43896 10.9863 7.2749 11.5469 7.2749C11.8066 7.2749 12.051 7.30908 12.28 7.37744C12.509 7.4458 12.709 7.54834 12.8799 7.68506C13.0542 7.81836 13.1909 7.98584 13.29 8.1875C13.3892 8.38916 13.4387 8.62329 13.4387 8.88989C13.4387 9.14282 13.3943 9.36841 13.3054 9.56665C13.2166 9.76489 13.1038 9.94775 12.967 10.1152C12.8337 10.2793 12.6885 10.4331 12.5312 10.5767C12.374 10.7202 12.2271 10.8638 12.0903 11.0073C11.957 11.1475 11.8459 11.2944 11.7571 11.4482C11.6682 11.6021 11.6238 11.7712 11.6238 11.9558C11.6238 12.113 11.6426 12.2566 11.6802 12.3865C11.7178 12.5129 11.7554 12.6206 11.793 12.7095H10.9675ZM11.429 14.8423C11.2786 14.8423 11.1453 14.7876 11.0291 14.6782C10.9163 14.5688 10.8599 14.4355 10.8599 14.2783C10.8599 14.1177 10.9163 13.9844 11.0291 13.8784C11.1418 13.7656 11.2751 13.7092 11.429 13.7092C11.5828 13.7092 11.7161 13.7656 11.8289 13.8784C11.9417 13.9844 11.998 14.1177 11.998 14.2783C11.998 14.4355 11.9417 14.5688 11.8289 14.6782C11.7126 14.7876 11.5793 14.8423 11.429 14.8423Z" fill="white"/>
</g>
<defs>
<filter id="filter0_dd_339_12529" x="0" y="0" width="23.5" height="23.5" filterUnits="userSpaceOnUse" color-interpolation-filters="sRGB">
<feFlood flood-opacity="0" result="BackgroundImageFix"/>
<feColorMatrix in="SourceAlpha" type="matrix" values="0 0 0 0 0 0 0 0 0 0 0 0 0 0 0 0 0 0 127 0" result="hardAlpha"/>
<feMorphology radius="1" operator="erode" in="SourceAlpha" result="effect1_dropShadow_339_12529"/>
<feOffset dy="1"/>
<feGaussianBlur stdDeviation="1"/>
<feComposite in2="hardAlpha" operator="out"/>
<feColorMatrix type="matrix" values="0 0 0 0 0 0 0 0 0 0 0 0 0 0 0 0 0 0 0.1 0"/>
<feBlend mode="normal" in2="BackgroundImageFix" result="effect1_dropShadow_339_12529"/>
<feColorMatrix in="SourceAlpha" type="matrix" values="0 0 0 0 0 0 0 0 0 0 0 0 0 0 0 0 0 0 127 0" result="hardAlpha"/>
<feOffset dy="1"/>
<feGaussianBlur stdDeviation="1.5"/>
<feComposite in2="hardAlpha" operator="out"/>
<feColorMatrix type="matrix" values="0 0 0 0 0 0 0 0 0 0 0 0 0 0 0 0 0 0 0.1 0"/>
<feBlend mode="normal" in2="effect1_dropShadow_339_12529" result="effect2_dropShadow_339_12529"/>
<feBlend mode="normal" in="SourceGraphic" in2="effect2_dropShadow_339_12529" result="shape"/>
</filter>
<linearGradient id="paint0_linear_339_12529" x1="3" y1="2" x2="20.5" y2="19.5" gradientUnits="userSpaceOnUse">
<stop stop-color="#51A2FF"/>
<stop offset="1" stop-color="#2B7FFF"/>
</linearGradient>
</defs>
</svg>
