<svg width="15" height="15" viewBox="0 0 15 15" fill="none" xmlns="http://www.w3.org/2000/svg">
<path d="M10.2223 12.3049V11.1383C10.2223 10.5194 9.9765 9.92593 9.53891 9.48835C9.10133 9.05076 8.50784 8.80493 7.889 8.80493H4.389C3.77016 8.80493 3.17667 9.05076 2.73908 9.48835C2.3015 9.92593 2.05566 10.5194 2.05566 11.1383V12.3049" stroke="#4A5565" stroke-width="1.16667" stroke-linecap="round" stroke-linejoin="round"/>
<path d="M10.2217 1.87964C10.722 2.00935 11.1652 2.30154 11.4815 2.71034C11.7978 3.11914 11.9695 3.62141 11.9695 4.13831C11.9695 4.6552 11.7978 5.15747 11.4815 5.56627C11.1652 5.97507 10.722 6.26726 10.2217 6.39697" stroke="#4A5565" stroke-width="1.16667" stroke-linecap="round" stroke-linejoin="round"/>
<path d="M13.7217 12.305V11.1384C13.7213 10.6214 13.5492 10.1191 13.2325 9.71054C12.9157 9.30194 12.4723 9.01011 11.9717 8.88086" stroke="#4A5565" stroke-width="1.16667" stroke-linecap="round" stroke-linejoin="round"/>
<path d="M6.139 6.4716C7.42766 6.4716 8.47233 5.42693 8.47233 4.13826C8.47233 2.8496 7.42766 1.80493 6.139 1.80493C4.85033 1.80493 3.80566 2.8496 3.80566 4.13826C3.80566 5.42693 4.85033 6.4716 6.139 6.4716Z" stroke="#4A5565" stroke-width="1.16667" stroke-linecap="round" stroke-linejoin="round"/>
</svg>
