<svg width="15" height="15" viewBox="0 0 15 15" fill="none" xmlns="http://www.w3.org/2000/svg">
<path d="M7.38867 4.13818V12.3048" stroke="#4A5565" stroke-width="1.16667" stroke-linecap="round" stroke-linejoin="round"/>
<path d="M2.139 10.5549C1.98429 10.5549 1.83591 10.4935 1.72652 10.3841C1.61712 10.2747 1.55566 10.1263 1.55566 9.9716V2.38826C1.55566 2.23356 1.61712 2.08518 1.72652 1.97579C1.83591 1.86639 1.98429 1.80493 2.139 1.80493H5.05566C5.6745 1.80493 6.26799 2.05076 6.70558 2.48835C7.14316 2.92593 7.389 3.51943 7.389 4.13826C7.389 3.51943 7.63483 2.92593 8.07241 2.48835C8.51 2.05076 9.10349 1.80493 9.72233 1.80493H12.639C12.7937 1.80493 12.9421 1.86639 13.0515 1.97579C13.1609 2.08518 13.2223 2.23356 13.2223 2.38826V9.9716C13.2223 10.1263 13.1609 10.2747 13.0515 10.3841C12.9421 10.4935 12.7937 10.5549 12.639 10.5549H9.139C8.67487 10.5549 8.22975 10.7393 7.90156 11.0675C7.57337 11.3957 7.389 11.8408 7.389 12.3049C7.389 11.8408 7.20462 11.3957 6.87643 11.0675C6.54825 10.7393 6.10313 10.5549 5.639 10.5549H2.139Z" stroke="#4A5565" stroke-width="1.16667" stroke-linecap="round" stroke-linejoin="round"/>
</svg>
