<svg width="15" height="15" viewBox="0 0 15 15" fill="none" xmlns="http://www.w3.org/2000/svg">
<path d="M7.33464 1.8937C7.36021 1.84205 7.3997 1.79858 7.44866 1.76818C7.49762 1.73779 7.5541 1.72168 7.61173 1.72168C7.66935 1.72168 7.72584 1.73779 7.7748 1.76818C7.82376 1.79858 7.86325 1.84205 7.88881 1.8937L9.23631 4.62312C9.32508 4.80277 9.45612 4.95819 9.61817 5.07605C9.78023 5.19391 9.96847 5.27068 10.1667 5.29978L13.1802 5.74078C13.2373 5.74906 13.291 5.77314 13.3351 5.81032C13.3792 5.84749 13.4121 5.89627 13.4299 5.95114C13.4477 6.00601 13.4499 6.06477 13.4361 6.12079C13.4223 6.17681 13.393 6.22784 13.3517 6.26812L11.1724 8.39028C11.0287 8.53034 10.9211 8.70323 10.859 8.89407C10.797 9.0849 10.7822 9.28797 10.816 9.48578L11.3305 12.4841C11.3406 12.5412 11.3344 12.5999 11.3127 12.6537C11.291 12.7074 11.2546 12.754 11.2077 12.788C11.1608 12.8221 11.1053 12.8423 11.0475 12.8463C10.9897 12.8503 10.9319 12.838 10.8807 12.8108L8.18689 11.3945C8.0094 11.3012 7.81191 11.2526 7.61143 11.2526C7.41096 11.2526 7.21347 11.3012 7.03598 11.3945L4.34273 12.8108C4.29159 12.8379 4.23388 12.85 4.17616 12.8459C4.11844 12.8418 4.06303 12.8216 4.01623 12.7876C3.96944 12.7535 3.93313 12.7071 3.91144 12.6534C3.88976 12.5998 3.88356 12.5411 3.89356 12.4841L4.40748 9.48637C4.44142 9.28846 4.42672 9.08527 4.36462 8.89431C4.30253 8.70336 4.19492 8.53037 4.05106 8.39028L1.87173 6.2687C1.83007 6.22847 1.80056 6.17735 1.78654 6.12116C1.77252 6.06497 1.77457 6.00598 1.79244 5.9509C1.81031 5.89581 1.8433 5.84686 1.88764 5.80961C1.93198 5.77236 1.98589 5.74831 2.04323 5.7402L5.05614 5.29978C5.25463 5.27091 5.44312 5.19423 5.6054 5.07636C5.76768 4.95849 5.89889 4.80294 5.98773 4.62312L7.33464 1.8937Z" fill="#FF6900" stroke="#FF6900" stroke-width="1.16667" stroke-linecap="round" stroke-linejoin="round"/>
</svg>
